<svg width="65" height="11" viewBox="0 0 65 11" fill="none" xmlns="http://www.w3.org/2000/svg">
<path d="M41.9324 0.266048H36.6764C36.618 0.266048 36.5888 0.295595 36.5888 0.35469C36.4428 2.74802 36.0048 5.34818 35.3624 7.44604V7.53468C35.3916 7.56423 35.4208 7.56423 35.45 7.56423H37.2604C37.2896 7.56423 37.348 7.53468 37.348 7.50514C37.8444 5.88004 38.2532 3.75263 38.3992 1.95024H40.122V7.47559C40.122 7.53469 40.1512 7.56423 40.2096 7.56423H41.9324C41.9908 7.56423 42.02 7.53469 42.02 7.47559V0.384237C42.02 0.325142 41.9908 0.266048 41.9324 0.266048ZM64.1536 0.266048H62.4308C62.3724 0.266048 62.3432 0.295595 62.3432 0.35469V5.85049C61.9636 5.96868 61.584 5.99823 61.1752 5.99823C60.0364 5.99823 59.7736 5.64366 59.7736 4.1072V0.384237C59.7736 0.325142 59.7444 0.295595 59.686 0.295595H57.9632C57.9048 0.295595 57.8756 0.325142 57.8756 0.384237V4.34358C57.8756 6.82555 58.6932 7.80061 60.8248 7.80061C62.022 7.80061 63.3944 7.47559 64.1828 7.18012C64.212 7.18012 64.2412 7.12102 64.2412 7.09148V0.384237C64.2412 0.325142 64.212 0.266048 64.1536 0.266048ZM27.7995 0.295595H26.0475C25.9891 0.295595 25.9599 0.325142 25.9599 0.35469C25.6971 1.44794 25.1423 3.27987 24.3831 5.20045L22.6311 0.325142C22.6311 0.295595 22.5727 0.266048 22.5435 0.266048H20.7915C20.7623 0.266048 20.7331 0.295595 20.7039 0.295595C20.6747 0.325142 20.6747 0.35469 20.7039 0.384237L23.3319 7.65287C23.0691 8.21427 22.8063 8.68703 22.5727 9.13024C22.3975 9.45526 22.2223 9.78028 22.0471 10.1348C22.0179 10.1644 22.0471 10.1939 22.0471 10.2235C22.0763 10.253 22.1055 10.2826 22.1347 10.2826H24.0327C24.0619 10.2826 24.0911 10.253 24.1203 10.2235C24.4415 9.603 24.8503 8.71658 25.2299 7.83016C26.3395 5.1709 27.2447 2.68893 27.9163 0.413784C27.9163 0.384237 27.9163 0.35469 27.8871 0.325142C27.8579 0.295595 27.8287 0.295595 27.7995 0.295595ZM34.0484 5.88004C34.0484 5.85049 34.0192 5.82094 33.99 5.82094H33.9024C33.4936 5.96868 32.7052 6.11641 32.1504 6.11641C30.9531 6.11641 30.3983 5.79139 30.3983 3.92991C30.3983 2.45255 30.5735 1.74341 32.1504 1.74341C32.5884 1.74341 33.0264 1.80251 33.552 1.97979C33.6104 1.97979 33.6396 1.97979 33.6688 1.9207C33.8732 1.53658 34.1068 1.09337 34.3696 0.502426V0.413784C34.3696 0.384237 34.3404 0.35469 34.3112 0.35469C33.6104 0.118311 32.7636 0.00012207 32.0336 0.00012207C29.5223 0.00012207 28.4127 1.18201 28.4127 3.87082C28.4127 6.58917 29.5223 7.80061 32.0336 7.80061C32.6468 7.80061 33.9024 7.65287 34.4864 7.4165C34.5448 7.38695 34.5448 7.3574 34.5448 7.29831L34.0484 5.88004ZM50.3712 0.295595H48.6192C48.59 0.295595 48.5316 0.325142 48.5316 0.35469C48.2688 1.44794 47.714 3.27987 46.9548 5.20045L45.2028 0.325142C45.2028 0.295595 45.1444 0.266048 45.1152 0.266048H43.3632C43.334 0.266048 43.3048 0.295595 43.2756 0.295595C43.2464 0.325142 43.2464 0.35469 43.2756 0.384237L45.9036 7.65287C45.6408 8.21427 45.378 8.65748 45.1444 9.13024C44.9692 9.45526 44.794 9.78028 44.6188 10.1348C44.5896 10.1644 44.6188 10.1939 44.6188 10.2235C44.648 10.253 44.6772 10.2826 44.7064 10.2826H46.6044C46.6336 10.2826 46.6628 10.253 46.692 10.2235C47.0132 9.603 47.422 8.71658 47.8016 7.83016C48.9112 5.1709 49.8164 2.68893 50.4588 0.413784C50.4588 0.384237 50.4588 0.35469 50.4296 0.325142C50.4296 0.295595 50.4004 0.295595 50.3712 0.295595ZM56.7952 0.266048H51.7144C51.656 0.266048 51.6268 0.295595 51.6268 0.35469V7.47559C51.6268 7.53469 51.656 7.56423 51.7144 7.56423H53.4372C53.4956 7.56423 53.5248 7.53469 53.5248 7.47559V1.97979H56.182C56.2112 1.97979 56.2696 1.95024 56.2696 1.9207C56.474 1.44794 56.6784 0.916089 56.8828 0.413784V0.325142C56.8536 0.295595 56.8244 0.266048 56.7952 0.266048Z" fill="#E62249"/>
<path d="M9.13961 6.17563C8.00081 6.17563 7.65041 5.85061 7.65041 3.93003C7.65041 1.86172 8.03001 1.68444 9.13961 1.68444C10.2492 1.68444 10.658 1.86172 10.658 3.93003C10.658 5.88015 10.2784 6.17563 9.13961 6.17563ZM9.13961 0.0593325C6.65761 0.0593325 5.69401 1.12304 5.69401 3.90048C5.69401 6.70748 6.65761 7.80073 9.13961 7.80073C11.6216 7.80073 12.6144 6.70748 12.6144 3.90048C12.6144 1.15258 11.6216 0.0593325 9.13961 0.0593325ZM19.4472 5.88015C19.4472 5.85061 19.418 5.82106 19.3888 5.82106H19.3012C18.8924 5.9688 18.104 6.11653 17.5492 6.11653C16.352 6.11653 15.7972 5.79151 15.7972 3.93003C15.7972 2.45267 15.9724 1.74353 17.5492 1.74353C17.9872 1.74353 18.4252 1.80262 18.9508 1.97991C18.98 1.97991 19.0384 1.97991 19.0676 1.92081C19.272 1.5367 19.5056 1.09349 19.7684 0.502542V0.4139C19.7684 0.384353 19.7392 0.354806 19.71 0.354806C19.0384 0.147974 18.1916 0.0297852 17.4616 0.0297852C14.9504 0.0297852 13.8408 1.21168 13.8408 3.90048C13.8408 6.61884 14.9504 7.83028 17.4616 7.83028C18.0748 7.83028 19.3304 7.68254 19.9144 7.44616C19.9728 7.41662 19.9728 7.38707 19.9728 7.32797L19.4472 5.88015ZM5.16841 0.266164H0.0876001C0.0292 0.266164 0 0.325258 0 0.384353V7.50526C0 7.56435 0.0292 7.5939 0.0876001 7.5939H1.8104C1.8688 7.5939 1.898 7.56435 1.898 7.50526V1.97991H4.55521C4.58441 1.97991 4.61361 1.95036 4.64281 1.92081C4.84721 1.44806 5.05161 0.916205 5.25601 0.4139V0.325258C5.22681 0.295711 5.19761 0.266164 5.16841 0.266164Z" fill="#005CA9"/>
</svg>
